<?xml version="1.0" encoding="UTF-8" standalone="no"?><svg xmlns="http://www.w3.org/2000/svg" xmlns:xlink="http://www.w3.org/1999/xlink" contentScriptType="application/ecmascript" contentStyleType="text/css" height="697px" preserveAspectRatio="none" style="width:959px;height:697px;background:#FFFFFF;" version="1.1" viewBox="0 0 959 697" width="959px" zoomAndPan="magnify"><defs><filter height="300%" id="ffqanz7nl5iaf" width="300%" x="-1" y="-1"><feGaussianBlur result="blurOut" stdDeviation="2.0"/><feColorMatrix in="blurOut" result="blurOut2" type="matrix" values="0 0 0 0 0 0 0 0 0 0 0 0 0 0 0 0 0 0 .4 0"/><feOffset dx="4.0" dy="4.0" in="blurOut2" result="blurOut3"/><feBlend in="SourceGraphic" in2="blurOut3" mode="normal"/></filter></defs><g><!--MD5=[2425901ae39834300882f0a804c36fd7]
class BTree--><rect codeLine="2" fill="#FEFECE" filter="url(#ffqanz7nl5iaf)" height="222.4609" id="BTree" style="stroke:#A80036;stroke-width:1.5;" width="214" x="7" y="258.53"/><ellipse cx="91.75" cy="274.53" fill="#ADD1B2" rx="11" ry="11" style="stroke:#A80036;stroke-width:1.0;"/><path d="M94.7188,280.1706 Q94.1406,280.4675 93.5,280.6081 Q92.8594,280.7644 92.1563,280.7644 Q89.6563,280.7644 88.3281,279.1238 Q87.0156,277.4675 87.0156,274.3425 Q87.0156,271.2175 88.3281,269.5613 Q89.6563,267.905 92.1563,267.905 Q92.8594,267.905 93.5,268.0613 Q94.1563,268.2175 94.7188,268.5144 L94.7188,271.2331 Q94.0938,270.655 93.5,270.3894 Q92.9063,270.1081 92.2813,270.1081 Q90.9375,270.1081 90.25,271.1863 Q89.5625,272.2488 89.5625,274.3425 Q89.5625,276.4363 90.25,277.5144 Q90.9375,278.5769 92.2813,278.5769 Q92.9063,278.5769 93.5,278.3113 Q94.0938,278.03 94.7188,277.4519 L94.7188,280.1706 Z " fill="#000000"/><text fill="#000000" font-family="sans-serif" font-size="12" lengthAdjust="spacing" textLength="36" x="112.25" y="278.6843">BTree</text><line style="stroke:#A80036;stroke-width:1.5;" x1="8" x2="220" y1="290.53" y2="290.53"/><rect fill="none" height="6" style="stroke:#C82930;stroke-width:1.0;" width="6" x="15" y="298.53"/><text fill="#000000" font-family="sans-serif" font-size="11" lengthAdjust="spacing" textLength="86" x="27" y="304.7404">root_ : Node_t*</text><line style="stroke:#A80036;stroke-width:1.0;" x1="8" x2="220" y1="311.3347" y2="311.3347"/><rect fill="#F24D5C" height="6" style="stroke:#C82930;stroke-width:1.0;" width="6" x="15" y="336.1394"/><text fill="#000000" font-family="sans-serif" font-size="11" lengthAdjust="spacing" textLength="188" x="27" y="342.3498">SearchLearfNode() : NodeStack_t</text><rect fill="#F24D5C" height="6" style="stroke:#C82930;stroke-width:1.0;" width="6" x="15" y="348.9441"/><text fill="#000000" font-family="sans-serif" font-size="11" lengthAdjust="spacing" textLength="183" x="27" y="355.1545">SearchLeftmostLeaf() : Node_t *</text><rect fill="#F24D5C" height="6" style="stroke:#C82930;stroke-width:1.0;" width="6" x="15" y="361.7488"/><text fill="#000000" font-family="sans-serif" font-size="11" lengthAdjust="spacing" textLength="68" x="27" y="367.9592">Split() : void</text><rect fill="#F24D5C" height="6" style="stroke:#C82930;stroke-width:1.0;" width="6" x="15" y="374.5534"/><text fill="#000000" font-family="sans-serif" font-size="11" lengthAdjust="spacing" textLength="78" x="27" y="380.7639">Merge() : void</text><line style="stroke:#A80036;stroke-width:1.0;stroke-dasharray:1.0,2.0;" x1="8" x2="69.5" y1="325.737" y2="325.737"/><text fill="#000000" font-family="sans-serif" font-size="11" lengthAdjust="spacing" textLength="89" x="69.5" y="329.0451">Utility Functions</text><line style="stroke:#A80036;stroke-width:1.0;stroke-dasharray:1.0,2.0;" x1="158.5" x2="220" y1="325.737" y2="325.737"/><ellipse cx="18" cy="407.1628" fill="#84BE84" rx="3" ry="3" style="stroke:#038048;stroke-width:1.0;"/><text fill="#000000" font-family="sans-serif" font-size="11" lengthAdjust="spacing" textLength="92" x="27" y="410.3733">Read() : payload</text><ellipse cx="18" cy="419.9675" fill="#84BE84" rx="3" ry="3" style="stroke:#038048;stroke-width:1.0;"/><text fill="#000000" font-family="sans-serif" font-size="11" lengthAdjust="spacing" textLength="129" x="27" y="423.1779">Scan() : RecordIterator</text><ellipse cx="18" cy="432.7722" fill="#84BE84" rx="3" ry="3" style="stroke:#038048;stroke-width:1.0;"/><text fill="#000000" font-family="sans-serif" font-size="11" lengthAdjust="spacing" textLength="114" x="27" y="435.9826">Write() : ReturnCode</text><ellipse cx="18" cy="445.5769" fill="#84BE84" rx="3" ry="3" style="stroke:#038048;stroke-width:1.0;"/><text fill="#000000" font-family="sans-serif" font-size="11" lengthAdjust="spacing" textLength="119" x="27" y="448.7873">Insert() : ReturnCode</text><ellipse cx="18" cy="458.3816" fill="#84BE84" rx="3" ry="3" style="stroke:#038048;stroke-width:1.0;"/><text fill="#000000" font-family="sans-serif" font-size="11" lengthAdjust="spacing" textLength="126" x="27" y="461.592">Update() : ReturnCode</text><ellipse cx="18" cy="471.1863" fill="#84BE84" rx="3" ry="3" style="stroke:#038048;stroke-width:1.0;"/><text fill="#000000" font-family="sans-serif" font-size="11" lengthAdjust="spacing" textLength="122" x="27" y="474.3967">Delete() : ReturnCode</text><line style="stroke:#A80036;stroke-width:1.0;stroke-dasharray:1.0,2.0;" x1="8" x2="102" y1="393.7605" y2="393.7605"/><text fill="#000000" font-family="sans-serif" font-size="11" lengthAdjust="spacing" textLength="24" x="102" y="397.0686">APIs</text><line style="stroke:#A80036;stroke-width:1.0;stroke-dasharray:1.0,2.0;" x1="126" x2="220" y1="393.7605" y2="393.7605"/><!--MD5=[3fee75583bb7a64f68d843a3c9534ab3]
class Node--><rect codeLine="19" fill="#FEFECE" filter="url(#ffqanz7nl5iaf)" height="627.4063" id="Node" style="stroke:#A80036;stroke-width:1.5;" width="274" x="473" y="56.03"/><ellipse cx="589.25" cy="72.03" fill="#ADD1B2" rx="11" ry="11" style="stroke:#A80036;stroke-width:1.0;"/><path d="M592.2188,77.6706 Q591.6406,77.9675 591,78.1081 Q590.3594,78.2644 589.6563,78.2644 Q587.1563,78.2644 585.8281,76.6237 Q584.5156,74.9675 584.5156,71.8425 Q584.5156,68.7175 585.8281,67.0612 Q587.1563,65.405 589.6563,65.405 Q590.3594,65.405 591,65.5612 Q591.6563,65.7175 592.2188,66.0144 L592.2188,68.7331 Q591.5938,68.155 591,67.8894 Q590.4063,67.6081 589.7813,67.6081 Q588.4375,67.6081 587.75,68.6862 Q587.0625,69.7487 587.0625,71.8425 Q587.0625,73.9362 587.75,75.0144 Q588.4375,76.0769 589.7813,76.0769 Q590.4063,76.0769 591,75.8112 Q591.5938,75.53 592.2188,74.9519 L592.2188,77.6706 Z " fill="#000000"/><text fill="#000000" font-family="sans-serif" font-size="12" lengthAdjust="spacing" textLength="33" x="609.75" y="76.1843">Node</text><line style="stroke:#A80036;stroke-width:1.5;" x1="474" x2="746" y1="88.03" y2="88.03"/><rect fill="none" height="6" style="stroke:#C82930;stroke-width:1.0;" width="6" x="481" y="96.03"/><text fill="#000000" font-family="sans-serif" font-size="11" lengthAdjust="spacing" textLength="100" x="493" y="102.2404">is_leaf_ : uint16_t</text><rect fill="none" height="6" style="stroke:#C82930;stroke-width:1.0;" width="6" x="481" y="108.8347"/><text fill="#000000" font-family="sans-serif" font-size="11" lengthAdjust="spacing" textLength="137" x="493" y="115.0451">record_count_ : uint16_t</text><rect fill="none" height="6" style="stroke:#C82930;stroke-width:1.0;" width="6" x="481" y="121.6394"/><text fill="#000000" font-family="sans-serif" font-size="11" lengthAdjust="spacing" textLength="120" x="493" y="127.8498">block_size_ : uint16_t</text><rect fill="none" height="6" style="stroke:#C82930;stroke-width:1.0;" width="6" x="481" y="134.4441"/><text fill="#000000" font-family="sans-serif" font-size="11" lengthAdjust="spacing" textLength="133" x="493" y="140.6545">deleted_size_ : uint16_t</text><rect fill="none" height="6" style="stroke:#C82930;stroke-width:1.0;" width="6" x="481" y="147.2487"/><text fill="#000000" font-family="sans-serif" font-size="11" lengthAdjust="spacing" textLength="87" x="493" y="153.4592">next_ : Node_t*</text><rect fill="none" height="6" style="stroke:#C82930;stroke-width:1.0;" width="6" x="481" y="160.0534"/><text fill="#000000" font-family="sans-serif" font-size="11" lengthAdjust="spacing" textLength="129" x="493" y="166.2639">high_meta_ : Metadata</text><rect fill="none" height="6" style="stroke:#C82930;stroke-width:1.0;" width="6" x="481" y="172.8581"/><text fill="#000000" font-family="sans-serif" font-size="11" lengthAdjust="spacing" textLength="143" x="493" y="179.0686">meta_array_ : Metadata[]</text><line style="stroke:#A80036;stroke-width:1.0;" x1="474" x2="746" y1="185.6628" y2="185.6628"/><ellipse cx="484" cy="213.4675" fill="#84BE84" rx="3" ry="3" style="stroke:#038048;stroke-width:1.0;"/><text fill="#000000" font-family="sans-serif" font-size="11" lengthAdjust="spacing" textLength="104" x="493" y="216.6779">IncludeKey() : bool</text><ellipse cx="484" cy="226.2722" fill="#84BE84" rx="3" ry="3" style="stroke:#038048;stroke-width:1.0;"/><text fill="#000000" font-family="sans-serif" font-size="11" lengthAdjust="spacing" textLength="101" x="493" y="229.4826">CanMerge() : bool</text><ellipse cx="484" cy="239.0769" fill="#84BE84" rx="3" ry="3" style="stroke:#038048;stroke-width:1.0;"/><text fill="#000000" font-family="sans-serif" font-size="11" lengthAdjust="spacing" textLength="78" x="493" y="242.2873">IsLeaf() : bool</text><ellipse cx="484" cy="251.8816" fill="#84BE84" rx="3" ry="3" style="stroke:#038048;stroke-width:1.0;"/><text fill="#000000" font-family="sans-serif" font-size="11" lengthAdjust="spacing" textLength="144" x="493" y="255.092">GetRecordCount() : size_t</text><ellipse cx="484" cy="264.6863" fill="#84BE84" rx="3" ry="3" style="stroke:#038048;stroke-width:1.0;"/><text fill="#000000" font-family="sans-serif" font-size="11" lengthAdjust="spacing" textLength="139" x="493" y="267.8967">GetNextNode() : Node_t*</text><ellipse cx="484" cy="277.4909" fill="#84BE84" rx="3" ry="3" style="stroke:#038048;stroke-width:1.0;"/><text fill="#000000" font-family="sans-serif" font-size="11" lengthAdjust="spacing" textLength="145" x="493" y="280.7014">GetMetaData() : Metadata</text><ellipse cx="484" cy="290.2956" fill="#84BE84" rx="3" ry="3" style="stroke:#038048;stroke-width:1.0;"/><text fill="#000000" font-family="sans-serif" font-size="11" lengthAdjust="spacing" textLength="79" x="493" y="293.5061">GetKey() : key</text><ellipse cx="484" cy="303.1003" fill="#84BE84" rx="3" ry="3" style="stroke:#038048;stroke-width:1.0;"/><text fill="#000000" font-family="sans-serif" font-size="11" lengthAdjust="spacing" textLength="104" x="493" y="306.3108">GetHighKey() : key</text><ellipse cx="484" cy="315.905" fill="#84BE84" rx="3" ry="3" style="stroke:#038048;stroke-width:1.0;"/><text fill="#000000" font-family="sans-serif" font-size="11" lengthAdjust="spacing" textLength="128" x="493" y="319.1154">GetPayload() : payload</text><ellipse cx="484" cy="328.7097" fill="#84BE84" rx="3" ry="3" style="stroke:#038048;stroke-width:1.0;"/><text fill="#000000" font-family="sans-serif" font-size="11" lengthAdjust="spacing" textLength="190" x="493" y="331.9201">GetRecord() : pair&lt;key, payload&gt;</text><line style="stroke:#A80036;stroke-width:1.0;stroke-dasharray:1.0,2.0;" x1="474" x2="588.5" y1="200.0652" y2="200.0652"/><text fill="#000000" font-family="sans-serif" font-size="11" lengthAdjust="spacing" textLength="43" x="588.5" y="203.3733">Getters</text><line style="stroke:#A80036;stroke-width:1.0;stroke-dasharray:1.0,2.0;" x1="631.5" x2="746" y1="200.0652" y2="200.0652"/><rect fill="#F24D5C" height="6" style="stroke:#C82930;stroke-width:1.0;" width="6" x="481" y="355.3191"/><text fill="#000000" font-family="sans-serif" font-size="11" lengthAdjust="spacing" textLength="82" x="493" y="361.5295">SetKey() : void</text><rect fill="#F24D5C" height="6" style="stroke:#C82930;stroke-width:1.0;" width="6" x="481" y="368.1238"/><text fill="#000000" font-family="sans-serif" font-size="11" lengthAdjust="spacing" textLength="106" x="493" y="374.3342">SetPayload() : void</text><line style="stroke:#A80036;stroke-width:1.0;stroke-dasharray:1.0,2.0;" x1="474" x2="589" y1="344.9167" y2="344.9167"/><text fill="#000000" font-family="sans-serif" font-size="11" lengthAdjust="spacing" textLength="42" x="589" y="348.2248">Setters</text><line style="stroke:#A80036;stroke-width:1.0;stroke-dasharray:1.0,2.0;" x1="631" x2="746" y1="344.9167" y2="344.9167"/><rect fill="#F24D5C" height="6" style="stroke:#C82930;stroke-width:1.0;" width="6" x="481" y="397.7331"/><text fill="#000000" font-family="sans-serif" font-size="11" lengthAdjust="spacing" textLength="119" x="493" y="403.9436">GetKeyAddr() : void *</text><rect fill="#F24D5C" height="6" style="stroke:#C82930;stroke-width:1.0;" width="6" x="481" y="410.5378"/><text fill="#000000" font-family="sans-serif" font-size="11" lengthAdjust="spacing" textLength="143" x="493" y="416.7483">GetPayloadAddr() : void *</text><rect fill="#F24D5C" height="6" style="stroke:#C82930;stroke-width:1.0;" width="6" x="481" y="423.3425"/><text fill="#000000" font-family="sans-serif" font-size="11" lengthAdjust="spacing" textLength="124" x="493" y="429.5529">IsRightmostOf() : bool</text><rect fill="#F24D5C" height="6" style="stroke:#C82930;stroke-width:1.0;" width="6" x="481" y="436.1472"/><text fill="#000000" font-family="sans-serif" font-size="11" lengthAdjust="spacing" textLength="178" x="493" y="442.3576">GetSpaceStatus() : ReturnCode</text><rect fill="#F24D5C" height="6" style="stroke:#C82930;stroke-width:1.0;" width="6" x="481" y="448.9519"/><text fill="#000000" font-family="sans-serif" font-size="11" lengthAdjust="spacing" textLength="129" x="493" y="455.1623">CopyKeyFrom() : size_t</text><rect fill="#F24D5C" height="6" style="stroke:#C82930;stroke-width:1.0;" width="6" x="481" y="461.7566"/><text fill="#000000" font-family="sans-serif" font-size="11" lengthAdjust="spacing" textLength="154" x="493" y="467.967">CopyHighKeyFrom() : size_t</text><rect fill="#F24D5C" height="6" style="stroke:#C82930;stroke-width:1.0;" width="6" x="481" y="474.5613"/><text fill="#000000" font-family="sans-serif" font-size="11" lengthAdjust="spacing" textLength="139" x="493" y="480.7717">CopyRecordFrom() : void</text><rect fill="#F24D5C" height="6" style="stroke:#C82930;stroke-width:1.0;" width="6" x="481" y="487.3659"/><text fill="#000000" font-family="sans-serif" font-size="11" lengthAdjust="spacing" textLength="155" x="493" y="493.5764">CopyRecordsFrom() : size_t</text><line style="stroke:#A80036;stroke-width:1.0;stroke-dasharray:1.0,2.0;" x1="474" x2="565.5" y1="387.3308" y2="387.3308"/><text fill="#000000" font-family="sans-serif" font-size="11" lengthAdjust="spacing" textLength="89" x="565.5" y="390.6389">Utility Functions</text><line style="stroke:#A80036;stroke-width:1.0;stroke-dasharray:1.0,2.0;" x1="654.5" x2="746" y1="387.3308" y2="387.3308"/><ellipse cx="484" cy="519.9753" fill="#84BE84" rx="3" ry="3" style="stroke:#038048;stroke-width:1.0;"/><text fill="#000000" font-family="sans-serif" font-size="11" lengthAdjust="spacing" textLength="245" x="493" y="523.1858">SearchRecord() : pair&lt;ReturnCode, size_t&gt;</text><ellipse cx="484" cy="532.78" fill="#84BE84" rx="3" ry="3" style="stroke:#038048;stroke-width:1.0;"/><text fill="#000000" font-family="sans-serif" font-size="11" lengthAdjust="spacing" textLength="120" x="493" y="535.9904">SearchChild() : size_t</text><ellipse cx="484" cy="545.5847" fill="#84BE84" rx="3" ry="3" style="stroke:#038048;stroke-width:1.0;"/><text fill="#000000" font-family="sans-serif" font-size="11" lengthAdjust="spacing" textLength="248" x="493" y="548.7951">SearchEndPositionFor() : pair&lt;bool, size_t&gt;</text><ellipse cx="484" cy="558.3894" fill="#84BE84" rx="3" ry="3" style="stroke:#038048;stroke-width:1.0;"/><text fill="#000000" font-family="sans-serif" font-size="11" lengthAdjust="spacing" textLength="114" x="493" y="561.5998">Read() : ReturnCode</text><ellipse cx="484" cy="571.1941" fill="#84BE84" rx="3" ry="3" style="stroke:#038048;stroke-width:1.0;"/><text fill="#000000" font-family="sans-serif" font-size="11" lengthAdjust="spacing" textLength="114" x="493" y="574.4045">Write() : ReturnCode</text><ellipse cx="484" cy="583.9988" fill="#84BE84" rx="3" ry="3" style="stroke:#038048;stroke-width:1.0;"/><text fill="#000000" font-family="sans-serif" font-size="11" lengthAdjust="spacing" textLength="119" x="493" y="587.2092">Insert() : ReturnCode</text><ellipse cx="484" cy="596.8034" fill="#84BE84" rx="3" ry="3" style="stroke:#038048;stroke-width:1.0;"/><text fill="#000000" font-family="sans-serif" font-size="11" lengthAdjust="spacing" textLength="126" x="493" y="600.0139">Update() : ReturnCode</text><ellipse cx="484" cy="609.6081" fill="#84BE84" rx="3" ry="3" style="stroke:#038048;stroke-width:1.0;"/><text fill="#000000" font-family="sans-serif" font-size="11" lengthAdjust="spacing" textLength="122" x="493" y="612.8186">Delete() : ReturnCode</text><ellipse cx="484" cy="622.4128" fill="#84BE84" rx="3" ry="3" style="stroke:#038048;stroke-width:1.0;"/><text fill="#000000" font-family="sans-serif" font-size="11" lengthAdjust="spacing" textLength="147" x="493" y="625.6233">InsertChild() : ReturnCode</text><ellipse cx="484" cy="635.2175" fill="#84BE84" rx="3" ry="3" style="stroke:#038048;stroke-width:1.0;"/><text fill="#000000" font-family="sans-serif" font-size="11" lengthAdjust="spacing" textLength="150" x="493" y="638.4279">DeleteChild() : ReturnCode</text><ellipse cx="484" cy="648.0222" fill="#84BE84" rx="3" ry="3" style="stroke:#038048;stroke-width:1.0;"/><text fill="#000000" font-family="sans-serif" font-size="11" lengthAdjust="spacing" textLength="110" x="493" y="651.2326">Consolidate() : void</text><ellipse cx="484" cy="660.8269" fill="#84BE84" rx="3" ry="3" style="stroke:#038048;stroke-width:1.0;"/><text fill="#000000" font-family="sans-serif" font-size="11" lengthAdjust="spacing" textLength="68" x="493" y="664.0373">Split() : void</text><ellipse cx="484" cy="673.6316" fill="#84BE84" rx="3" ry="3" style="stroke:#038048;stroke-width:1.0;"/><text fill="#000000" font-family="sans-serif" font-size="11" lengthAdjust="spacing" textLength="78" x="493" y="676.842">Merge() : void</text><line style="stroke:#A80036;stroke-width:1.0;stroke-dasharray:1.0,2.0;" x1="474" x2="598" y1="506.573" y2="506.573"/><text fill="#000000" font-family="sans-serif" font-size="11" lengthAdjust="spacing" textLength="24" x="598" y="509.8811">APIs</text><line style="stroke:#A80036;stroke-width:1.0;stroke-dasharray:1.0,2.0;" x1="622" x2="746" y1="506.573" y2="506.573"/><!--MD5=[7d2c4ae7970c32f414f93e7b18676929]
class Metadata--><rect codeLine="67" fill="#FEFECE" filter="url(#ffqanz7nl5iaf)" height="86.4141" id="Metadata" style="stroke:#A80036;stroke-width:1.5;" width="145" x="800.5" y="326.53"/><ellipse cx="839.35" cy="342.53" fill="#ADD1B2" rx="11" ry="11" style="stroke:#A80036;stroke-width:1.0;"/><path d="M842.3188,348.1706 Q841.7406,348.4675 841.1,348.6081 Q840.4594,348.7644 839.7563,348.7644 Q837.2563,348.7644 835.9281,347.1238 Q834.6156,345.4675 834.6156,342.3425 Q834.6156,339.2175 835.9281,337.5613 Q837.2563,335.905 839.7563,335.905 Q840.4594,335.905 841.1,336.0613 Q841.7563,336.2175 842.3188,336.5144 L842.3188,339.2331 Q841.6938,338.655 841.1,338.3894 Q840.5063,338.1081 839.8813,338.1081 Q838.5375,338.1081 837.85,339.1863 Q837.1625,340.2488 837.1625,342.3425 Q837.1625,344.4363 837.85,345.5144 Q838.5375,346.5769 839.8813,346.5769 Q840.5063,346.5769 841.1,346.3113 Q841.6938,346.03 842.3188,345.4519 L842.3188,348.1706 Z " fill="#000000"/><text fill="#000000" font-family="sans-serif" font-size="12" lengthAdjust="spacing" textLength="60" x="858.65" y="346.6843">Metadata</text><line style="stroke:#A80036;stroke-width:1.5;" x1="801.5" x2="944.5" y1="358.53" y2="358.53"/><ellipse cx="811.5" cy="369.53" rx="3" ry="3" style="stroke:#038048;stroke-width:1.0;fill:none;"/><text fill="#000000" font-family="sans-serif" font-size="11" lengthAdjust="spacing" textLength="90" x="820.5" y="372.7404">offset : uint32_t</text><ellipse cx="811.5" cy="382.3347" rx="3" ry="3" style="stroke:#038048;stroke-width:1.0;fill:none;"/><text fill="#000000" font-family="sans-serif" font-size="11" lengthAdjust="spacing" textLength="113" x="820.5" y="385.5451">key_length: uint16_t</text><ellipse cx="811.5" cy="395.1394" rx="3" ry="3" style="stroke:#038048;stroke-width:1.0;fill:none;"/><text fill="#000000" font-family="sans-serif" font-size="11" lengthAdjust="spacing" textLength="119" x="820.5" y="398.3498">total_length: uint16_t</text><line style="stroke:#A80036;stroke-width:1.0;" x1="801.5" x2="944.5" y1="404.9441" y2="404.9441"/><!--MD5=[b15da4c01a4fc70c285fc86d71ef3bc1]
class RecordIterator--><rect codeLine="74" fill="#FEFECE" filter="url(#ffqanz7nl5iaf)" height="209.6563" id="RecordIterator" style="stroke:#A80036;stroke-width:1.5;" width="181" x="256.5" y="264.53"/><ellipse cx="297.6" cy="280.53" fill="#ADD1B2" rx="11" ry="11" style="stroke:#A80036;stroke-width:1.0;"/><path d="M300.5688,286.1706 Q299.9906,286.4675 299.35,286.6081 Q298.7094,286.7644 298.0063,286.7644 Q295.5063,286.7644 294.1781,285.1238 Q292.8656,283.4675 292.8656,280.3425 Q292.8656,277.2175 294.1781,275.5613 Q295.5063,273.905 298.0063,273.905 Q298.7094,273.905 299.35,274.0613 Q300.0063,274.2175 300.5688,274.5144 L300.5688,277.2331 Q299.9438,276.655 299.35,276.3894 Q298.7563,276.1081 298.1313,276.1081 Q296.7875,276.1081 296.1,277.1863 Q295.4125,278.2488 295.4125,280.3425 Q295.4125,282.4363 296.1,283.5144 Q296.7875,284.5769 298.1313,284.5769 Q298.7563,284.5769 299.35,284.3113 Q299.9438,284.03 300.5688,283.4519 L300.5688,286.1706 Z " fill="#000000"/><text fill="#000000" font-family="sans-serif" font-size="12" lengthAdjust="spacing" textLength="91" x="317.4" y="284.6843">RecordIterator</text><line style="stroke:#A80036;stroke-width:1.5;" x1="257.5" x2="436.5" y1="296.53" y2="296.53"/><rect fill="none" height="6" style="stroke:#C82930;stroke-width:1.0;" width="6" x="264.5" y="304.53"/><text fill="#000000" font-family="sans-serif" font-size="11" lengthAdjust="spacing" textLength="91" x="276.5" y="310.7404">node_ : Node_t*</text><rect fill="none" height="6" style="stroke:#C82930;stroke-width:1.0;" width="6" x="264.5" y="317.3347"/><text fill="#000000" font-family="sans-serif" font-size="11" lengthAdjust="spacing" textLength="124" x="276.5" y="323.5451">record_count_ : size_t</text><rect fill="none" height="6" style="stroke:#C82930;stroke-width:1.0;" width="6" x="264.5" y="330.1394"/><text fill="#000000" font-family="sans-serif" font-size="11" lengthAdjust="spacing" textLength="118" x="276.5" y="336.3498">current_pos_ : size_t</text><rect fill="none" height="6" style="stroke:#C82930;stroke-width:1.0;" width="6" x="264.5" y="342.9441"/><text fill="#000000" font-family="sans-serif" font-size="11" lengthAdjust="spacing" textLength="155" x="276.5" y="349.1545">end_key_ : pair&lt;key, bool&gt;</text><rect fill="none" height="6" style="stroke:#C82930;stroke-width:1.0;" width="6" x="264.5" y="355.7488"/><text fill="#000000" font-family="sans-serif" font-size="11" lengthAdjust="spacing" textLength="79" x="276.5" y="361.9592">is_end_ : bool</text><line style="stroke:#A80036;stroke-width:1.0;" x1="257.5" x2="436.5" y1="368.5534" y2="368.5534"/><ellipse cx="267.5" cy="396.3581" fill="#84BE84" rx="3" ry="3" style="stroke:#038048;stroke-width:1.0;"/><text fill="#000000" font-family="sans-serif" font-size="11" lengthAdjust="spacing" textLength="137" x="276.5" y="399.5686">*() : pair&lt;key, payload&gt;</text><ellipse cx="267.5" cy="409.1628" fill="#84BE84" rx="3" ry="3" style="stroke:#038048;stroke-width:1.0;"/><text fill="#000000" font-family="sans-serif" font-size="11" lengthAdjust="spacing" textLength="61" x="276.5" y="412.3733">++() : void</text><line style="stroke:#A80036;stroke-width:1.0;stroke-dasharray:1.0,2.0;" x1="257.5" x2="319" y1="382.9558" y2="382.9558"/><text fill="#000000" font-family="sans-serif" font-size="11" lengthAdjust="spacing" textLength="56" x="319" y="386.2639">operators</text><line style="stroke:#A80036;stroke-width:1.0;stroke-dasharray:1.0,2.0;" x1="375" x2="436.5" y1="382.9558" y2="382.9558"/><ellipse cx="267.5" cy="438.7722" fill="#84BE84" rx="3" ry="3" style="stroke:#038048;stroke-width:1.0;"/><text fill="#000000" font-family="sans-serif" font-size="11" lengthAdjust="spacing" textLength="91" x="276.5" y="441.9826">HasNext() : bool</text><ellipse cx="267.5" cy="451.5769" fill="#84BE84" rx="3" ry="3" style="stroke:#038048;stroke-width:1.0;"/><text fill="#000000" font-family="sans-serif" font-size="11" lengthAdjust="spacing" textLength="79" x="276.5" y="454.7873">GetKey() : key</text><ellipse cx="267.5" cy="464.3816" fill="#84BE84" rx="3" ry="3" style="stroke:#038048;stroke-width:1.0;"/><text fill="#000000" font-family="sans-serif" font-size="11" lengthAdjust="spacing" textLength="128" x="276.5" y="467.592">GetPayload() : payload</text><line style="stroke:#A80036;stroke-width:1.0;stroke-dasharray:1.0,2.0;" x1="257.5" x2="325.5" y1="425.3698" y2="425.3698"/><text fill="#000000" font-family="sans-serif" font-size="11" lengthAdjust="spacing" textLength="43" x="325.5" y="428.6779">Getters</text><line style="stroke:#A80036;stroke-width:1.0;stroke-dasharray:1.0,2.0;" x1="368.5" x2="436.5" y1="425.3698" y2="425.3698"/><!--MD5=[da9ff4fccb4ef076e9e0a79de934988d]
link BTree to Node--><path codeLine="90" d="M125.28,258.51 C140.27,177.02 175.18,72.74 256.5,26.03 C291.38,6 402.62,6 437.5,26.03 C450.63,33.57 462.78,42.47 474.04,52.43 " fill="none" id="BTree-to-Node" style="stroke:#A80036;stroke-width:1.0;"/><polygon fill="#A80036" points="477.82,55.85,473.8253,46.8476,474.1106,52.4973,468.461,52.7826,477.82,55.85" style="stroke:#A80036;stroke-width:1.0;"/><text fill="#000000" font-family="sans-serif" font-size="13" lengthAdjust="spacing" textLength="8" x="117.7691" y="247.6028">1</text><text fill="#000000" font-family="sans-serif" font-size="13" lengthAdjust="spacing" textLength="8" x="466.6283" y="45.386">1</text><!--MD5=[1a2d2e6c58a5698430ca9e43fbf9816d]
link Node to Metadata--><path codeLine="91" d="M747.15,369.53 C763.05,369.53 778.95,369.53 794.85,369.53 " fill="none" id="Node-to-Metadata" style="stroke:#A80036;stroke-width:1.0;"/><polygon fill="#A80036" points="800.24,369.53,791.24,365.53,795.24,369.53,791.24,373.53,800.24,369.53" style="stroke:#A80036;stroke-width:1.0;"/><text fill="#000000" font-family="sans-serif" font-size="13" lengthAdjust="spacing" textLength="8" x="754.8691" y="366.1793">1</text><text fill="#000000" font-family="sans-serif" font-size="13" lengthAdjust="spacing" textLength="8" x="784.3241" y="365.809">1</text><!--MD5=[fb7add3d04029a548e9a9a347d9aecd1]
link Node to Node--><path codeLine="92" d="M747.3,262.77 C767.98,279.23 782,314.82 782,369.53 C782,420.82 769.68,455.31 751.1,472.98 " fill="none" id="Node-to-Node" style="stroke:#A80036;stroke-width:1.0;"/><polygon fill="#A80036" points="747.3,476.29,756.7135,473.394,751.07,473.0056,751.4584,467.3621,747.3,476.29" style="stroke:#A80036;stroke-width:1.0;"/><text fill="#000000" font-family="sans-serif" font-size="13" lengthAdjust="spacing" textLength="8" x="755.0273" y="253.5808">1</text><text fill="#000000" font-family="sans-serif" font-size="13" lengthAdjust="spacing" textLength="16" x="754.792" y="478.4679">0..</text><!--MD5=[ff25ba72b4478c0d22f6633328b047f8]
link RecordIterator to Node--><path codeLine="93" d="M437.66,369.53 C447.6,369.53 457.54,369.53 467.47,369.53 " fill="none" id="RecordIterator-to-Node" style="stroke:#A80036;stroke-width:1.0;"/><polygon fill="#A80036" points="472.67,369.53,463.67,365.53,467.67,369.53,463.67,373.53,472.67,369.53" style="stroke:#A80036;stroke-width:1.0;"/><text fill="#000000" font-family="sans-serif" font-size="13" lengthAdjust="spacing" textLength="8" x="445.499" y="365.9955">1</text><text fill="#000000" font-family="sans-serif" font-size="13" lengthAdjust="spacing" textLength="8" x="456.941" y="366.1793">1</text><!--MD5=[0026f3f4c5c04950258860228da0f25b]
@startuml

class BTree{
  -root_ : Node_t*
- -
.. Utility Functions ..
  -SearchLearfNode() : NodeStack_t
  -SearchLeftmostLeaf() : Node_t *
  -Split() : void
  -Merge() : void
.. APIs ..
  +Read() : payload
  +Scan() : RecordIterator
  +Write() : ReturnCode
  +Insert() : ReturnCode
  +Update() : ReturnCode
  +Delete() : ReturnCode
}

class Node{
  -is_leaf_ : uint16_t
  -record_count_ : uint16_t
  -block_size_ : uint16_t
  -deleted_size_ : uint16_t
  -next_ : Node_t*
  -high_meta_ : Metadata
  -meta_array_ : Metadata[]
- -
.. Getters ..
  +IncludeKey() : bool
  +CanMerge() : bool
  +IsLeaf() : bool
  +GetRecordCount() : size_t
  +GetNextNode() : Node_t*
  +GetMetaData() : Metadata
  +GetKey() : key
  +GetHighKey() : key
  +GetPayload() : payload
  +GetRecord() : pair<key, payload>
.. Setters ..
  -SetKey() : void
  -SetPayload() : void
.. Utility Functions ..
  -GetKeyAddr() : void *
  -GetPayloadAddr() : void *
  -IsRightmostOf() : bool
  -GetSpaceStatus() : ReturnCode
  -CopyKeyFrom() : size_t
  -CopyHighKeyFrom() : size_t
  -CopyRecordFrom() : void
  -CopyRecordsFrom() : size_t
.. APIs ..
  +SearchRecord() : pair<ReturnCode, size_t>
  +SearchChild() : size_t
  +SearchEndPositionFor() : pair<bool, size_t>
  +Read() : ReturnCode
  +Write() : ReturnCode
  +Insert() : ReturnCode
  +Update() : ReturnCode
  +Delete() : ReturnCode
  +InsertChild() : ReturnCode
  +DeleteChild() : ReturnCode
  +Consolidate() : void
  +Split() : void
  +Merge() : void
}

class Metadata{
  +offset : uint32_t
  +key_length: uint16_t
  +total_length: uint16_t
- -
}

class RecordIterator{
  -node_ : Node_t*
  -record_count_ : size_t
  -current_pos_ : size_t
  -end_key_ : pair<key, bool>
  -is_end_ : bool
- -
.. operators ..
  + *() : pair<key, payload>
  + ++() : void
.. Getters ..
  +HasNext() : bool
  +GetKey() : key
  +GetPayload() : payload
}

BTree "1" -> "1" Node
Node "1" -> "1" Metadata
Node "1" -> "0.." Node
RecordIterator "1" -> "1" Node

@enduml

PlantUML version 1.2022.0(Wed Jan 12 01:16:42 JST 2022)
(GPL source distribution)
Java Runtime: OpenJDK Runtime Environment
JVM: OpenJDK 64-Bit Server VM
Default Encoding: UTF-8
Language: en
Country: null
--></g></svg>