<?xml version="1.0" encoding="UTF-8" standalone="no"?><svg xmlns="http://www.w3.org/2000/svg" xmlns:xlink="http://www.w3.org/1999/xlink" contentScriptType="application/ecmascript" contentStyleType="text/css" height="482px" preserveAspectRatio="none" style="width:973px;height:482px;background:#FFFFFF;" version="1.1" viewBox="0 0 973 482" width="973px" zoomAndPan="magnify"><defs><filter height="300%" id="f1dwliytywofr2" width="300%" x="-1" y="-1"><feGaussianBlur result="blurOut" stdDeviation="2.0"/><feColorMatrix in="blurOut" result="blurOut2" type="matrix" values="0 0 0 0 0 0 0 0 0 0 0 0 0 0 0 0 0 0 .4 0"/><feOffset dx="4.0" dy="4.0" in="blurOut2" result="blurOut3"/><feBlend in="SourceGraphic" in2="blurOut3" mode="normal"/></filter></defs><g><!--MD5=[55fb5d3105acf664b4bd3e6da11459b5]
class BplusTree--><rect codeLine="2" fill="#FEFECE" filter="url(#f1dwliytywofr2)" height="222.4609" id="BplusTree" style="stroke:#A80036;stroke-width:1.5;" width="214" x="7" y="158.65"/><ellipse cx="78.75" cy="174.65" fill="#ADD1B2" rx="11" ry="11" style="stroke:#A80036;stroke-width:1.0;"/><path d="M81.7188,180.2906 Q81.1406,180.5875 80.5,180.7281 Q79.8594,180.8844 79.1563,180.8844 Q76.6563,180.8844 75.3281,179.2437 Q74.0156,177.5875 74.0156,174.4625 Q74.0156,171.3375 75.3281,169.6812 Q76.6563,168.025 79.1563,168.025 Q79.8594,168.025 80.5,168.1812 Q81.1563,168.3375 81.7188,168.6344 L81.7188,171.3531 Q81.0938,170.775 80.5,170.5094 Q79.9063,170.2281 79.2813,170.2281 Q77.9375,170.2281 77.25,171.3062 Q76.5625,172.3687 76.5625,174.4625 Q76.5625,176.5562 77.25,177.6344 Q77.9375,178.6969 79.2813,178.6969 Q79.9063,178.6969 80.5,178.4312 Q81.0938,178.15 81.7188,177.5719 L81.7188,180.2906 Z " fill="#000000"/><text fill="#000000" font-family="sans-serif" font-size="12" lengthAdjust="spacing" textLength="62" x="99.25" y="178.8043">BplusTree</text><line style="stroke:#A80036;stroke-width:1.5;" x1="8" x2="220" y1="190.65" y2="190.65"/><rect fill="none" height="6" style="stroke:#C82930;stroke-width:1.0;" width="6" x="15" y="198.65"/><text fill="#000000" font-family="sans-serif" font-size="11" lengthAdjust="spacing" textLength="80" x="27" y="204.8604">root_ : Node_t</text><line style="stroke:#A80036;stroke-width:1.0;" x1="8" x2="220" y1="211.4547" y2="211.4547"/><rect fill="#F24D5C" height="6" style="stroke:#C82930;stroke-width:1.0;" width="6" x="15" y="236.2594"/><text fill="#000000" font-family="sans-serif" font-size="11" lengthAdjust="spacing" textLength="188" x="27" y="242.4698">SearchLearfNode() : NodeStack_t</text><rect fill="#F24D5C" height="6" style="stroke:#C82930;stroke-width:1.0;" width="6" x="15" y="249.0641"/><text fill="#000000" font-family="sans-serif" font-size="11" lengthAdjust="spacing" textLength="68" x="27" y="255.2745">Split() : void</text><rect fill="#F24D5C" height="6" style="stroke:#C82930;stroke-width:1.0;" width="6" x="15" y="261.8688"/><text fill="#000000" font-family="sans-serif" font-size="11" lengthAdjust="spacing" textLength="78" x="27" y="268.0792">Merge() : void</text><line style="stroke:#A80036;stroke-width:1.0;stroke-dasharray:1.0,2.0;" x1="8" x2="69.5" y1="225.857" y2="225.857"/><text fill="#000000" font-family="sans-serif" font-size="11" lengthAdjust="spacing" textLength="89" x="69.5" y="229.1651">Utility Functions</text><line style="stroke:#A80036;stroke-width:1.0;stroke-dasharray:1.0,2.0;" x1="158.5" x2="220" y1="225.857" y2="225.857"/><ellipse cx="18" cy="294.4781" fill="#84BE84" rx="3" ry="3" style="stroke:#038048;stroke-width:1.0;"/><text fill="#000000" font-family="sans-serif" font-size="11" lengthAdjust="spacing" textLength="145" x="27" y="297.6886">Read() : pair&lt;key, value&gt;</text><ellipse cx="18" cy="307.2828" fill="#84BE84" rx="3" ry="3" style="stroke:#038048;stroke-width:1.0;"/><text fill="#000000" font-family="sans-serif" font-size="11" lengthAdjust="spacing" textLength="129" x="27" y="310.4933">Scan() : RecordIterator</text><ellipse cx="18" cy="320.0875" fill="#84BE84" rx="3" ry="3" style="stroke:#038048;stroke-width:1.0;"/><text fill="#000000" font-family="sans-serif" font-size="11" lengthAdjust="spacing" textLength="133" x="27" y="323.2979">Begin() : RecordIterator</text><ellipse cx="18" cy="332.8922" fill="#84BE84" rx="3" ry="3" style="stroke:#038048;stroke-width:1.0;"/><text fill="#000000" font-family="sans-serif" font-size="11" lengthAdjust="spacing" textLength="114" x="27" y="336.1026">Write() : ReturnCode</text><ellipse cx="18" cy="345.6969" fill="#84BE84" rx="3" ry="3" style="stroke:#038048;stroke-width:1.0;"/><text fill="#000000" font-family="sans-serif" font-size="11" lengthAdjust="spacing" textLength="119" x="27" y="348.9073">Insert() : ReturnCode</text><ellipse cx="18" cy="358.5016" fill="#84BE84" rx="3" ry="3" style="stroke:#038048;stroke-width:1.0;"/><text fill="#000000" font-family="sans-serif" font-size="11" lengthAdjust="spacing" textLength="126" x="27" y="361.712">Update() : ReturnCode</text><ellipse cx="18" cy="371.3063" fill="#84BE84" rx="3" ry="3" style="stroke:#038048;stroke-width:1.0;"/><text fill="#000000" font-family="sans-serif" font-size="11" lengthAdjust="spacing" textLength="122" x="27" y="374.5167">Delete() : ReturnCode</text><line style="stroke:#A80036;stroke-width:1.0;stroke-dasharray:1.0,2.0;" x1="8" x2="102" y1="281.0758" y2="281.0758"/><text fill="#000000" font-family="sans-serif" font-size="11" lengthAdjust="spacing" textLength="24" x="102" y="284.3839">APIs</text><line style="stroke:#A80036;stroke-width:1.0;stroke-dasharray:1.0,2.0;" x1="126" x2="220" y1="281.0758" y2="281.0758"/><!--MD5=[3fee75583bb7a64f68d843a3c9534ab3]
class Node--><rect codeLine="19" fill="#FEFECE" filter="url(#f1dwliytywofr2)" height="396.9219" id="Node" style="stroke:#A80036;stroke-width:1.5;" width="271" x="454.5" y="71.15"/><ellipse cx="569.25" cy="87.15" fill="#ADD1B2" rx="11" ry="11" style="stroke:#A80036;stroke-width:1.0;"/><path d="M572.2188,92.7906 Q571.6406,93.0875 571,93.2281 Q570.3594,93.3844 569.6563,93.3844 Q567.1563,93.3844 565.8281,91.7437 Q564.5156,90.0875 564.5156,86.9625 Q564.5156,83.8375 565.8281,82.1812 Q567.1563,80.525 569.6563,80.525 Q570.3594,80.525 571,80.6812 Q571.6563,80.8375 572.2188,81.1344 L572.2188,83.8531 Q571.5938,83.275 571,83.0094 Q570.4063,82.7281 569.7813,82.7281 Q568.4375,82.7281 567.75,83.8062 Q567.0625,84.8687 567.0625,86.9625 Q567.0625,89.0562 567.75,90.1344 Q568.4375,91.1969 569.7813,91.1969 Q570.4063,91.1969 571,90.9312 Q571.5938,90.65 572.2188,90.0719 L572.2188,92.7906 Z " fill="#000000"/><text fill="#000000" font-family="sans-serif" font-size="12" lengthAdjust="spacing" textLength="33" x="589.75" y="91.3043">Node</text><line style="stroke:#A80036;stroke-width:1.5;" x1="455.5" x2="724.5" y1="103.15" y2="103.15"/><rect fill="none" height="6" style="stroke:#C82930;stroke-width:1.0;" width="6" x="462.5" y="111.15"/><text fill="#000000" font-family="sans-serif" font-size="11" lengthAdjust="spacing" textLength="121" x="474.5" y="117.3604">node_type_ : uint16_t</text><rect fill="none" height="6" style="stroke:#C82930;stroke-width:1.0;" width="6" x="462.5" y="123.9547"/><text fill="#000000" font-family="sans-serif" font-size="11" lengthAdjust="spacing" textLength="137" x="474.5" y="130.1651">record_count_ : uint16_t</text><rect fill="none" height="6" style="stroke:#C82930;stroke-width:1.0;" width="6" x="462.5" y="136.7594"/><text fill="#000000" font-family="sans-serif" font-size="11" lengthAdjust="spacing" textLength="121" x="474.5" y="142.9698">next_node_ : Node_t*</text><rect fill="none" height="6" style="stroke:#C82930;stroke-width:1.0;" width="6" x="462.5" y="149.5641"/><text fill="#000000" font-family="sans-serif" font-size="11" lengthAdjust="spacing" textLength="143" x="474.5" y="155.7745">meta_array_ : Metadata[]</text><line style="stroke:#A80036;stroke-width:1.0;" x1="455.5" x2="724.5" y1="162.3687" y2="162.3687"/><ellipse cx="465.5" cy="190.1734" fill="#84BE84" rx="3" ry="3" style="stroke:#038048;stroke-width:1.0;"/><text fill="#000000" font-family="sans-serif" font-size="11" lengthAdjust="spacing" textLength="78" x="474.5" y="193.3839">IsLeaf() : bool</text><ellipse cx="465.5" cy="202.9781" fill="#84BE84" rx="3" ry="3" style="stroke:#038048;stroke-width:1.0;"/><text fill="#000000" font-family="sans-serif" font-size="11" lengthAdjust="spacing" textLength="144" x="474.5" y="206.1886">GetRecordCount() : size_t</text><ellipse cx="465.5" cy="215.7828" fill="#84BE84" rx="3" ry="3" style="stroke:#038048;stroke-width:1.0;"/><text fill="#000000" font-family="sans-serif" font-size="11" lengthAdjust="spacing" textLength="139" x="474.5" y="218.9933">GetNextNode() : Node_t*</text><ellipse cx="465.5" cy="228.5875" fill="#84BE84" rx="3" ry="3" style="stroke:#038048;stroke-width:1.0;"/><text fill="#000000" font-family="sans-serif" font-size="11" lengthAdjust="spacing" textLength="145" x="474.5" y="231.7979">GetMetaData() : Metadata</text><ellipse cx="465.5" cy="241.3922" fill="#84BE84" rx="3" ry="3" style="stroke:#038048;stroke-width:1.0;"/><text fill="#000000" font-family="sans-serif" font-size="11" lengthAdjust="spacing" textLength="128" x="474.5" y="244.6026">GetPayload() : payload</text><rect fill="#F24D5C" height="6" style="stroke:#C82930;stroke-width:1.0;" width="6" x="462.5" y="251.1969"/><text fill="#000000" font-family="sans-serif" font-size="11" lengthAdjust="spacing" textLength="115" x="474.5" y="257.4073">CopyPayload() : void</text><line style="stroke:#A80036;stroke-width:1.0;stroke-dasharray:1.0,2.0;" x1="455.5" x2="568.5" y1="176.7711" y2="176.7711"/><text fill="#000000" font-family="sans-serif" font-size="11" lengthAdjust="spacing" textLength="43" x="568.5" y="180.0792">Getters</text><line style="stroke:#A80036;stroke-width:1.0;stroke-dasharray:1.0,2.0;" x1="611.5" x2="724.5" y1="176.7711" y2="176.7711"/><rect fill="#F24D5C" height="6" style="stroke:#C82930;stroke-width:1.0;" width="6" x="462.5" y="280.8063"/><text fill="#000000" font-family="sans-serif" font-size="11" lengthAdjust="spacing" textLength="82" x="474.5" y="287.0167">SetKey() : void</text><rect fill="#F24D5C" height="6" style="stroke:#C82930;stroke-width:1.0;" width="6" x="462.5" y="293.6109"/><text fill="#000000" font-family="sans-serif" font-size="11" lengthAdjust="spacing" textLength="106" x="474.5" y="299.8214">SetPayload() : void</text><line style="stroke:#A80036;stroke-width:1.0;stroke-dasharray:1.0,2.0;" x1="455.5" x2="569" y1="270.4039" y2="270.4039"/><text fill="#000000" font-family="sans-serif" font-size="11" lengthAdjust="spacing" textLength="42" x="569" y="273.712">Setters</text><line style="stroke:#A80036;stroke-width:1.0;stroke-dasharray:1.0,2.0;" x1="611" x2="724.5" y1="270.4039" y2="270.4039"/><rect fill="#F24D5C" height="6" style="stroke:#C82930;stroke-width:1.0;" width="6" x="462.5" y="323.2203"/><text fill="#000000" font-family="sans-serif" font-size="11" lengthAdjust="spacing" textLength="101" x="474.5" y="329.4308">HasSpace() : bool</text><rect fill="#F24D5C" height="6" style="stroke:#C82930;stroke-width:1.0;" width="6" x="462.5" y="336.025"/><text fill="#000000" font-family="sans-serif" font-size="11" lengthAdjust="spacing" textLength="139" x="474.5" y="342.2354">CopyRecordFrom() : void</text><line style="stroke:#A80036;stroke-width:1.0;stroke-dasharray:1.0,2.0;" x1="455.5" x2="545.5" y1="312.818" y2="312.818"/><text fill="#000000" font-family="sans-serif" font-size="11" lengthAdjust="spacing" textLength="89" x="545.5" y="316.1261">Utility Functions</text><line style="stroke:#A80036;stroke-width:1.0;stroke-dasharray:1.0,2.0;" x1="634.5" x2="724.5" y1="312.818" y2="312.818"/><ellipse cx="465.5" cy="368.6344" fill="#84BE84" rx="3" ry="3" style="stroke:#038048;stroke-width:1.0;"/><text fill="#000000" font-family="sans-serif" font-size="11" lengthAdjust="spacing" textLength="245" x="474.5" y="371.8448">SearchRecord() : pair&lt;ReturnCode, size_t&gt;</text><ellipse cx="465.5" cy="381.4391" fill="#84BE84" rx="3" ry="3" style="stroke:#038048;stroke-width:1.0;"/><text fill="#000000" font-family="sans-serif" font-size="11" lengthAdjust="spacing" textLength="68" x="474.5" y="384.6495">Split() : void</text><ellipse cx="465.5" cy="394.2438" fill="#84BE84" rx="3" ry="3" style="stroke:#038048;stroke-width:1.0;"/><text fill="#000000" font-family="sans-serif" font-size="11" lengthAdjust="spacing" textLength="78" x="474.5" y="397.4542">Merge() : void</text><ellipse cx="465.5" cy="407.0484" fill="#84BE84" rx="3" ry="3" style="stroke:#038048;stroke-width:1.0;"/><text fill="#000000" font-family="sans-serif" font-size="11" lengthAdjust="spacing" textLength="114" x="474.5" y="410.2589">Read() : ReturnCode</text><ellipse cx="465.5" cy="419.8531" fill="#84BE84" rx="3" ry="3" style="stroke:#038048;stroke-width:1.0;"/><text fill="#000000" font-family="sans-serif" font-size="11" lengthAdjust="spacing" textLength="114" x="474.5" y="423.0636">Write() : ReturnCode</text><ellipse cx="465.5" cy="432.6578" fill="#84BE84" rx="3" ry="3" style="stroke:#038048;stroke-width:1.0;"/><text fill="#000000" font-family="sans-serif" font-size="11" lengthAdjust="spacing" textLength="119" x="474.5" y="435.8683">Insert() : ReturnCode</text><ellipse cx="465.5" cy="445.4625" fill="#84BE84" rx="3" ry="3" style="stroke:#038048;stroke-width:1.0;"/><text fill="#000000" font-family="sans-serif" font-size="11" lengthAdjust="spacing" textLength="126" x="474.5" y="448.6729">Update() : ReturnCode</text><ellipse cx="465.5" cy="458.2672" fill="#84BE84" rx="3" ry="3" style="stroke:#038048;stroke-width:1.0;"/><text fill="#000000" font-family="sans-serif" font-size="11" lengthAdjust="spacing" textLength="122" x="474.5" y="461.4776">Delete() : ReturnCode</text><line style="stroke:#A80036;stroke-width:1.0;stroke-dasharray:1.0,2.0;" x1="455.5" x2="578" y1="355.232" y2="355.232"/><text fill="#000000" font-family="sans-serif" font-size="11" lengthAdjust="spacing" textLength="24" x="578" y="358.5401">APIs</text><line style="stroke:#A80036;stroke-width:1.0;stroke-dasharray:1.0,2.0;" x1="602" x2="724.5" y1="355.232" y2="355.232"/><!--MD5=[7d2c4ae7970c32f414f93e7b18676929]
class Metadata--><rect codeLine="49" fill="#FEFECE" filter="url(#f1dwliytywofr2)" height="196.8516" id="Metadata" style="stroke:#A80036;stroke-width:1.5;" width="180" x="779" y="171.15"/><ellipse cx="834.75" cy="187.15" fill="#ADD1B2" rx="11" ry="11" style="stroke:#A80036;stroke-width:1.0;"/><path d="M837.7188,192.7906 Q837.1406,193.0875 836.5,193.2281 Q835.8594,193.3844 835.1563,193.3844 Q832.6563,193.3844 831.3281,191.7437 Q830.0156,190.0875 830.0156,186.9625 Q830.0156,183.8375 831.3281,182.1812 Q832.6563,180.525 835.1563,180.525 Q835.8594,180.525 836.5,180.6812 Q837.1563,180.8375 837.7188,181.1344 L837.7188,183.8531 Q837.0938,183.275 836.5,183.0094 Q835.9063,182.7281 835.2813,182.7281 Q833.9375,182.7281 833.25,183.8062 Q832.5625,184.8687 832.5625,186.9625 Q832.5625,189.0562 833.25,190.1344 Q833.9375,191.1969 835.2813,191.1969 Q835.9063,191.1969 836.5,190.9312 Q837.0938,190.65 837.7188,190.0719 L837.7188,192.7906 Z " fill="#000000"/><text fill="#000000" font-family="sans-serif" font-size="12" lengthAdjust="spacing" textLength="60" x="855.25" y="191.3043">Metadata</text><line style="stroke:#A80036;stroke-width:1.5;" x1="780" x2="958" y1="203.15" y2="203.15"/><rect fill="none" height="6" style="stroke:#C82930;stroke-width:1.0;" width="6" x="787" y="211.15"/><text fill="#000000" font-family="sans-serif" font-size="11" lengthAdjust="spacing" textLength="96" x="799" y="217.3604">offset_ : uint32_t</text><rect fill="none" height="6" style="stroke:#C82930;stroke-width:1.0;" width="6" x="787" y="223.9547"/><text fill="#000000" font-family="sans-serif" font-size="11" lengthAdjust="spacing" textLength="119" x="799" y="230.1651">key_length_: uint32_t</text><rect fill="none" height="6" style="stroke:#C82930;stroke-width:1.0;" width="6" x="787" y="236.7594"/><text fill="#000000" font-family="sans-serif" font-size="11" lengthAdjust="spacing" textLength="125" x="799" y="242.9698">total_length_: uint32_t</text><line style="stroke:#A80036;stroke-width:1.0;" x1="780" x2="958" y1="249.5641" y2="249.5641"/><ellipse cx="790" cy="277.3688" fill="#84BE84" rx="3" ry="3" style="stroke:#038048;stroke-width:1.0;"/><text fill="#000000" font-family="sans-serif" font-size="11" lengthAdjust="spacing" textLength="107" x="799" y="280.5792">GetOffset() : size_t</text><ellipse cx="790" cy="290.1734" fill="#84BE84" rx="3" ry="3" style="stroke:#038048;stroke-width:1.0;"/><text fill="#000000" font-family="sans-serif" font-size="11" lengthAdjust="spacing" textLength="130" x="799" y="293.3839">GetKeyLength() : size_t</text><ellipse cx="790" cy="302.9781" fill="#84BE84" rx="3" ry="3" style="stroke:#038048;stroke-width:1.0;"/><text fill="#000000" font-family="sans-serif" font-size="11" lengthAdjust="spacing" textLength="138" x="799" y="306.1886">GetTotalLength() : size_t</text><ellipse cx="790" cy="315.7828" fill="#84BE84" rx="3" ry="3" style="stroke:#038048;stroke-width:1.0;"/><text fill="#000000" font-family="sans-serif" font-size="11" lengthAdjust="spacing" textLength="154" x="799" y="318.9933">GetPayloadLength() : size_t</text><line style="stroke:#A80036;stroke-width:1.0;stroke-dasharray:1.0,2.0;" x1="780" x2="847.5" y1="263.9664" y2="263.9664"/><text fill="#000000" font-family="sans-serif" font-size="11" lengthAdjust="spacing" textLength="43" x="847.5" y="267.2745">Getters</text><line style="stroke:#A80036;stroke-width:1.0;stroke-dasharray:1.0,2.0;" x1="890.5" x2="958" y1="263.9664" y2="263.9664"/><ellipse cx="790" cy="345.3922" fill="#84BE84" rx="3" ry="3" style="stroke:#038048;stroke-width:1.0;"/><text fill="#000000" font-family="sans-serif" font-size="11" lengthAdjust="spacing" textLength="97" x="799" y="348.6026">SetOffset() : void</text><ellipse cx="790" cy="358.1969" fill="#84BE84" rx="3" ry="3" style="stroke:#038048;stroke-width:1.0;"/><text fill="#000000" font-family="sans-serif" font-size="11" lengthAdjust="spacing" textLength="124" x="799" y="361.4073">SetTotalLength(): void</text><line style="stroke:#A80036;stroke-width:1.0;stroke-dasharray:1.0,2.0;" x1="780" x2="848" y1="331.9898" y2="331.9898"/><text fill="#000000" font-family="sans-serif" font-size="11" lengthAdjust="spacing" textLength="42" x="848" y="335.2979">Setters</text><line style="stroke:#A80036;stroke-width:1.0;stroke-dasharray:1.0,2.0;" x1="890" x2="958" y1="331.9898" y2="331.9898"/><!--MD5=[b15da4c01a4fc70c285fc86d71ef3bc1]
class RecordIterator--><rect codeLine="64" fill="#FEFECE" filter="url(#f1dwliytywofr2)" height="184.0469" id="RecordIterator" style="stroke:#A80036;stroke-width:1.5;" width="163" x="256.5" y="177.65"/><ellipse cx="289.5" cy="193.65" fill="#ADD1B2" rx="11" ry="11" style="stroke:#A80036;stroke-width:1.0;"/><path d="M292.4688,199.2906 Q291.8906,199.5875 291.25,199.7281 Q290.6094,199.8844 289.9063,199.8844 Q287.4063,199.8844 286.0781,198.2437 Q284.7656,196.5875 284.7656,193.4625 Q284.7656,190.3375 286.0781,188.6812 Q287.4063,187.025 289.9063,187.025 Q290.6094,187.025 291.25,187.1812 Q291.9063,187.3375 292.4688,187.6344 L292.4688,190.3531 Q291.8438,189.775 291.25,189.5094 Q290.6563,189.2281 290.0313,189.2281 Q288.6875,189.2281 288,190.3062 Q287.3125,191.3687 287.3125,193.4625 Q287.3125,195.5562 288,196.6344 Q288.6875,197.6969 290.0313,197.6969 Q290.6563,197.6969 291.25,197.4312 Q291.8438,197.15 292.4688,196.5719 L292.4688,199.2906 Z " fill="#000000"/><text fill="#000000" font-family="sans-serif" font-size="12" lengthAdjust="spacing" textLength="91" x="307.5" y="197.8043">RecordIterator</text><line style="stroke:#A80036;stroke-width:1.5;" x1="257.5" x2="418.5" y1="209.65" y2="209.65"/><rect fill="none" height="6" style="stroke:#C82930;stroke-width:1.0;" width="6" x="264.5" y="217.65"/><text fill="#000000" font-family="sans-serif" font-size="11" lengthAdjust="spacing" textLength="91" x="276.5" y="223.8604">node_ : Node_t*</text><rect fill="none" height="6" style="stroke:#C82930;stroke-width:1.0;" width="6" x="264.5" y="230.4547"/><text fill="#000000" font-family="sans-serif" font-size="11" lengthAdjust="spacing" textLength="124" x="276.5" y="236.6651">record_count_ : size_t</text><rect fill="none" height="6" style="stroke:#C82930;stroke-width:1.0;" width="6" x="264.5" y="243.2594"/><text fill="#000000" font-family="sans-serif" font-size="11" lengthAdjust="spacing" textLength="113" x="276.5" y="249.4698">current_idx_ : size_t</text><line style="stroke:#A80036;stroke-width:1.0;" x1="257.5" x2="418.5" y1="256.0641" y2="256.0641"/><ellipse cx="267.5" cy="283.8688" fill="#84BE84" rx="3" ry="3" style="stroke:#038048;stroke-width:1.0;"/><text fill="#000000" font-family="sans-serif" font-size="11" lengthAdjust="spacing" textLength="137" x="276.5" y="287.0792">*() : pair&lt;key, payload&gt;</text><ellipse cx="267.5" cy="296.6734" fill="#84BE84" rx="3" ry="3" style="stroke:#038048;stroke-width:1.0;"/><text fill="#000000" font-family="sans-serif" font-size="11" lengthAdjust="spacing" textLength="61" x="276.5" y="299.8839">++() : void</text><line style="stroke:#A80036;stroke-width:1.0;stroke-dasharray:1.0,2.0;" x1="257.5" x2="310" y1="270.4664" y2="270.4664"/><text fill="#000000" font-family="sans-serif" font-size="11" lengthAdjust="spacing" textLength="56" x="310" y="273.7745">operators</text><line style="stroke:#A80036;stroke-width:1.0;stroke-dasharray:1.0,2.0;" x1="366" x2="418.5" y1="270.4664" y2="270.4664"/><ellipse cx="267.5" cy="326.2828" fill="#84BE84" rx="3" ry="3" style="stroke:#038048;stroke-width:1.0;"/><text fill="#000000" font-family="sans-serif" font-size="11" lengthAdjust="spacing" textLength="91" x="276.5" y="329.4933">HasNext() : bool</text><rect fill="#F24D5C" height="6" style="stroke:#C82930;stroke-width:1.0;" width="6" x="264.5" y="336.0875"/><text fill="#000000" font-family="sans-serif" font-size="11" lengthAdjust="spacing" textLength="79" x="276.5" y="342.2979">GetKey() : key</text><rect fill="#F24D5C" height="6" style="stroke:#C82930;stroke-width:1.0;" width="6" x="264.5" y="348.8922"/><text fill="#000000" font-family="sans-serif" font-size="11" lengthAdjust="spacing" textLength="128" x="276.5" y="355.1026">GetPayload() : payload</text><line style="stroke:#A80036;stroke-width:1.0;stroke-dasharray:1.0,2.0;" x1="257.5" x2="316.5" y1="312.8805" y2="312.8805"/><text fill="#000000" font-family="sans-serif" font-size="11" lengthAdjust="spacing" textLength="43" x="316.5" y="316.1886">Getters</text><line style="stroke:#A80036;stroke-width:1.0;stroke-dasharray:1.0,2.0;" x1="359.5" x2="418.5" y1="312.8805" y2="312.8805"/><!--MD5=[d72cd7b9f3854d48e1b540dd2b38231c]
link BplusTree to Node--><path codeLine="78" d="M154.93,158.51 C177.57,113.68 210.61,66.61 256.5,41.15 C319.85,6 354.74,8.67 419.5,41.15 C433.93,48.39 447.46,57.49 460.07,67.87 " fill="none" id="BplusTree-to-Node" style="stroke:#A80036;stroke-width:1.0;"/><polygon fill="#A80036" points="463.96,71.13,459.6391,62.2796,460.1306,67.915,454.4952,68.4066,463.96,71.13" style="stroke:#A80036;stroke-width:1.0;"/><text fill="#000000" font-family="sans-serif" font-size="13" lengthAdjust="spacing" textLength="8" x="149.4112" y="147.5947">1</text><text fill="#000000" font-family="sans-serif" font-size="13" lengthAdjust="spacing" textLength="8" x="450.8803" y="60.1534">1</text><!--MD5=[1a2d2e6c58a5698430ca9e43fbf9816d]
link Node to Metadata--><path codeLine="79" d="M725.69,269.65 C741.61,269.65 757.54,269.65 773.47,269.65 " fill="none" id="Node-to-Metadata" style="stroke:#A80036;stroke-width:1.0;"/><polygon fill="#A80036" points="778.87,269.65,769.87,265.65,773.87,269.65,769.87,273.65,778.87,269.65" style="stroke:#A80036;stroke-width:1.0;"/><text fill="#000000" font-family="sans-serif" font-size="13" lengthAdjust="spacing" textLength="8" x="733.3293" y="266.3125">1</text><text fill="#000000" font-family="sans-serif" font-size="13" lengthAdjust="spacing" textLength="8" x="763.0749" y="266.1074">1</text><!--MD5=[fb7add3d04029a548e9a9a347d9aecd1]
link Node to Node--><path codeLine="80" d="M725.76,201.94 C746.45,212.28 760.5,234.85 760.5,269.65 C760.5,301.74 748.56,323.42 730.49,334.71 " fill="none" id="Node-to-Node" style="stroke:#A80036;stroke-width:1.0;"/><polygon fill="#A80036" points="725.76,337.36,735.5665,336.4477,730.1213,334.9148,731.6542,329.4696,725.76,337.36" style="stroke:#A80036;stroke-width:1.0;"/><text fill="#000000" font-family="sans-serif" font-size="13" lengthAdjust="spacing" textLength="8" x="733.4031" y="194.8996">1</text><text fill="#000000" font-family="sans-serif" font-size="13" lengthAdjust="spacing" textLength="16" x="733.6219" y="337.7254">0..</text><!--MD5=[ff25ba72b4478c0d22f6633328b047f8]
link RecordIterator to Node--><path codeLine="81" d="M419.7,269.65 C429.52,269.65 439.34,269.65 449.16,269.65 " fill="none" id="RecordIterator-to-Node" style="stroke:#A80036;stroke-width:1.0;"/><polygon fill="#A80036" points="454.29,269.65,445.29,265.65,449.29,269.65,445.29,273.65,454.29,269.65" style="stroke:#A80036;stroke-width:1.0;"/><text fill="#000000" font-family="sans-serif" font-size="13" lengthAdjust="spacing" textLength="8" x="427.6005" y="266.0294">1</text><text fill="#000000" font-family="sans-serif" font-size="13" lengthAdjust="spacing" textLength="8" x="438.6496" y="266.3125">1</text><!--MD5=[ec3478b6d99476ae1528b79824cfa817]
@startuml

class BplusTree{
  -root_ : Node_t
- -
.. Utility Functions ..
  -SearchLearfNode() : NodeStack_t
  -Split() : void
  -Merge() : void
.. APIs ..
  +Read() : pair<key, value>
  +Scan() : RecordIterator
  +Begin() : RecordIterator
  +Write() : ReturnCode
  +Insert() : ReturnCode
  +Update() : ReturnCode
  +Delete() : ReturnCode
}

class Node{
  -node_type_ : uint16_t
  -record_count_ : uint16_t
  -next_node_ : Node_t*
  -meta_array_ : Metadata[]
- -
.. Getters ..
  +IsLeaf() : bool
  +GetRecordCount() : size_t
  +GetNextNode() : Node_t*
  +GetMetaData() : Metadata
  +GetPayload() : payload
  -CopyPayload() : void
.. Setters ..
  -SetKey() : void
  -SetPayload() : void
.. Utility Functions ..
  -HasSpace() : bool
  -CopyRecordFrom() : void
.. APIs ..
  +SearchRecord() : pair<ReturnCode, size_t>
  +Split() : void
  +Merge() : void
  +Read() : ReturnCode
  +Write() : ReturnCode
  +Insert() : ReturnCode
  +Update() : ReturnCode
  +Delete() : ReturnCode
}

class Metadata{
  -offset_ : uint32_t
  -key_length_: uint32_t
  -total_length_: uint32_t
- -
.. Getters ..
  +GetOffset() : size_t
  +GetKeyLength() : size_t
  +GetTotalLength() : size_t
  +GetPayloadLength() : size_t
.. Setters ..
  +SetOffset() : void
  +SetTotalLength(): void
}

class RecordIterator{
  -node_ : Node_t*
  -record_count_ : size_t
  -current_idx_ : size_t
- -
.. operators ..
  + *() : pair<key, payload>
  + ++() : void
.. Getters ..
  +HasNext() : bool
  -GetKey() : key
  -GetPayload() : payload
}

BplusTree "1" -> "1" Node
Node "1" -> "1" Metadata
Node "1" -> "0.." Node
RecordIterator "1" -> "1" Node

@enduml

PlantUML version 1.2021.14(Sat Nov 13 01:46:50 JST 2021)
(GPL source distribution)
Java Runtime: OpenJDK Runtime Environment
JVM: OpenJDK 64-Bit Server VM
Default Encoding: UTF-8
Language: en
Country: null
--></g></svg>