<?xml version="1.0" encoding="UTF-8" standalone="no"?><svg xmlns="http://www.w3.org/2000/svg" xmlns:xlink="http://www.w3.org/1999/xlink" contentScriptType="application/ecmascript" contentStyleType="text/css" height="382px" preserveAspectRatio="none" style="width:311px;height:382px;background:#FFFFFF;" version="1.1" viewBox="0 0 311 382" width="311px" zoomAndPan="magnify"><defs><filter height="300%" id="f57e7dulqyzhu" width="300%" x="-1" y="-1"><feGaussianBlur result="blurOut" stdDeviation="2.0"/><feColorMatrix in="blurOut" result="blurOut2" type="matrix" values="0 0 0 0 0 0 0 0 0 0 0 0 0 0 0 0 0 0 .4 0"/><feOffset dx="4.0" dy="4.0" in="blurOut2" result="blurOut3"/><feBlend in="SourceGraphic" in2="blurOut3" mode="normal"/></filter></defs><g><rect fill="#FFFFFF" filter="url(#f57e7dulqyzhu)" height="160.7969" style="stroke:#A80036;stroke-width:1.0;" width="10" x="110" y="119.4297"/><rect fill="#FFFFFF" filter="url(#f57e7dulqyzhu)" height="102.5313" style="stroke:#A80036;stroke-width:1.0;" width="10" x="196" y="148.5625"/><rect fill="#FFFFFF" filter="url(#f57e7dulqyzhu)" height="29.1328" style="stroke:#A80036;stroke-width:1.0;" width="10" x="281" y="177.6953"/><line style="stroke:#A80036;stroke-width:1.0;stroke-dasharray:5.0,5.0;" x1="24" x2="24" y1="88.2969" y2="298.2266"/><line style="stroke:#A80036;stroke-width:1.0;stroke-dasharray:5.0,5.0;" x1="115" x2="115" y1="88.2969" y2="298.2266"/><line style="stroke:#A80036;stroke-width:1.0;stroke-dasharray:5.0,5.0;" x1="200.5" x2="200.5" y1="88.2969" y2="298.2266"/><line style="stroke:#A80036;stroke-width:1.0;stroke-dasharray:5.0,5.0;" x1="286" x2="286" y1="88.2969" y2="298.2266"/><text fill="#000000" font-family="sans-serif" font-size="14" lengthAdjust="spacing" textLength="32" x="5" y="84.9951">User</text><ellipse cx="24" cy="15" fill="#FEFECE" filter="url(#f57e7dulqyzhu)" rx="8" ry="8" style="stroke:#A80036;stroke-width:2.0;"/><path d="M24,23 L24,50 M11,31 L37,31 M24,50 L11,65 M24,50 L37,65 " fill="none" filter="url(#f57e7dulqyzhu)" style="stroke:#A80036;stroke-width:2.0;"/><text fill="#000000" font-family="sans-serif" font-size="14" lengthAdjust="spacing" textLength="32" x="5" y="310.2217">User</text><ellipse cx="24" cy="323.5234" fill="#FEFECE" filter="url(#f57e7dulqyzhu)" rx="8" ry="8" style="stroke:#A80036;stroke-width:2.0;"/><path d="M24,331.5234 L24,358.5234 M11,339.5234 L37,339.5234 M24,358.5234 L11,373.5234 M24,358.5234 L37,373.5234 " fill="none" filter="url(#f57e7dulqyzhu)" style="stroke:#A80036;stroke-width:2.0;"/><text fill="#000000" font-family="sans-serif" font-size="14" lengthAdjust="spacing" textLength="60" x="82" y="84.9951">Interface</text><path d="M94.5,44 L94.5,68 M94.5,56 L111.5,56 " fill="none" filter="url(#f57e7dulqyzhu)" style="stroke:#A80036;stroke-width:2.0;"/><ellipse cx="123.5" cy="56" fill="#FEFECE" filter="url(#f57e7dulqyzhu)" rx="12" ry="12" style="stroke:#A80036;stroke-width:2.0;"/><text fill="#000000" font-family="sans-serif" font-size="14" lengthAdjust="spacing" textLength="60" x="82" y="310.2217">Interface</text><path d="M94.5,317.5234 L94.5,341.5234 M94.5,329.5234 L111.5,329.5234 " fill="none" filter="url(#f57e7dulqyzhu)" style="stroke:#A80036;stroke-width:2.0;"/><ellipse cx="123.5" cy="329.5234" fill="#FEFECE" filter="url(#f57e7dulqyzhu)" rx="12" ry="12" style="stroke:#A80036;stroke-width:2.0;"/><rect fill="#FEFECE" filter="url(#f57e7dulqyzhu)" height="30.2969" style="stroke:#A80036;stroke-width:1.5;" width="55" x="171.5" y="53"/><text fill="#000000" font-family="sans-serif" font-size="14" lengthAdjust="spacing" textLength="41" x="178.5" y="72.9951">Entitiy</text><rect fill="#FEFECE" filter="url(#f57e7dulqyzhu)" height="30.2969" style="stroke:#A80036;stroke-width:1.5;" width="55" x="171.5" y="297.2266"/><text fill="#000000" font-family="sans-serif" font-size="14" lengthAdjust="spacing" textLength="41" x="178.5" y="317.2217">Entitiy</text><text fill="#000000" font-family="sans-serif" font-size="14" lengthAdjust="spacing" textLength="21" x="272.5" y="84.9951">DB</text><path d="M268,36 C268,26 286,26 286,26 C286,26 304,26 304,36 L304,62 C304,72 286,72 286,72 C286,72 268,72 268,62 L268,36 " fill="#FEFECE" filter="url(#f57e7dulqyzhu)" style="stroke:#000000;stroke-width:1.5;"/><path d="M268,36 C268,46 286,46 286,46 C286,46 304,46 304,36 " fill="none" style="stroke:#000000;stroke-width:1.5;"/><text fill="#000000" font-family="sans-serif" font-size="14" lengthAdjust="spacing" textLength="21" x="272.5" y="310.2217">DB</text><path d="M268,323.5234 C268,313.5234 286,313.5234 286,313.5234 C286,313.5234 304,313.5234 304,323.5234 L304,349.5234 C304,359.5234 286,359.5234 286,359.5234 C286,359.5234 268,359.5234 268,349.5234 L268,323.5234 " fill="#FEFECE" filter="url(#f57e7dulqyzhu)" style="stroke:#000000;stroke-width:1.5;"/><path d="M268,323.5234 C268,333.5234 286,333.5234 286,333.5234 C286,333.5234 304,333.5234 304,323.5234 " fill="none" style="stroke:#000000;stroke-width:1.5;"/><rect fill="#FFFFFF" filter="url(#f57e7dulqyzhu)" height="160.7969" style="stroke:#A80036;stroke-width:1.0;" width="10" x="110" y="119.4297"/><rect fill="#FFFFFF" filter="url(#f57e7dulqyzhu)" height="102.5313" style="stroke:#A80036;stroke-width:1.0;" width="10" x="196" y="148.5625"/><rect fill="#FFFFFF" filter="url(#f57e7dulqyzhu)" height="29.1328" style="stroke:#A80036;stroke-width:1.0;" width="10" x="281" y="177.6953"/><polygon fill="#A80036" points="98,115.4297,108,119.4297,98,123.4297,102,119.4297" style="stroke:#A80036;stroke-width:1.0;"/><line style="stroke:#A80036;stroke-width:1.0;" x1="24" x2="104" y1="119.4297" y2="119.4297"/><text fill="#000000" font-family="sans-serif" font-size="13" lengthAdjust="spacing" textLength="52" x="31" y="114.3638">Request</text><polygon fill="#A80036" points="184,144.5625,194,148.5625,184,152.5625,188,148.5625" style="stroke:#A80036;stroke-width:1.0;"/><line style="stroke:#A80036;stroke-width:1.0;" x1="120" x2="190" y1="148.5625" y2="148.5625"/><text fill="#000000" font-family="sans-serif" font-size="13" lengthAdjust="spacing" textLength="57" x="127" y="143.4966">Message</text><polygon fill="#A80036" points="269,173.6953,279,177.6953,269,181.6953,273,177.6953" style="stroke:#A80036;stroke-width:1.0;"/><line style="stroke:#A80036;stroke-width:1.0;" x1="206" x2="275" y1="177.6953" y2="177.6953"/><text fill="#000000" font-family="sans-serif" font-size="13" lengthAdjust="spacing" textLength="26" x="213" y="172.6294">SQL</text><polygon fill="#A80036" points="217,202.8281,207,206.8281,217,210.8281,213,206.8281" style="stroke:#A80036;stroke-width:1.0;"/><line style="stroke:#A80036;stroke-width:1.0;stroke-dasharray:2.0,2.0;" x1="211" x2="285" y1="206.8281" y2="206.8281"/><text fill="#000000" font-family="sans-serif" font-size="13" lengthAdjust="spacing" textLength="51" x="223" y="201.7622">Commit</text><polygon fill="#A80036" points="131,247.0938,121,251.0938,131,255.0938,127,251.0938" style="stroke:#A80036;stroke-width:1.0;"/><line style="stroke:#A80036;stroke-width:1.0;stroke-dasharray:2.0,2.0;" x1="125" x2="200" y1="251.0938" y2="251.0938"/><text fill="#000000" font-family="sans-serif" font-size="13" lengthAdjust="spacing" textLength="42" x="137" y="230.895">Return</text><text fill="#000000" font-family="sans-serif" font-size="13" lengthAdjust="spacing" textLength="34" x="137" y="246.0278">value</text><polygon fill="#A80036" points="35,276.2266,25,280.2266,35,284.2266,31,280.2266" style="stroke:#A80036;stroke-width:1.0;"/><line style="stroke:#A80036;stroke-width:1.0;stroke-dasharray:2.0,2.0;" x1="29" x2="114" y1="280.2266" y2="280.2266"/><text fill="#000000" font-family="sans-serif" font-size="13" lengthAdjust="spacing" textLength="62" x="41" y="275.1606">Response</text><!--MD5=[bcbab9d42f98dabd99fca4e39aa90049]
@startuml sequence

actor User

boundary Interface

User -> Interface : Request
activate Interface

participant Entitiy

Interface -> Entitiy : Message
activate Entitiy

database DB

Entitiy -> DB : SQL
activate DB

DB - -> Entitiy : Commit
deactivate DB

Entitiy - -> Interface : Return\nvalue
deactivate Entitiy

Interface - -> User : Response
deactivate Interface

@enduml

PlantUML version 1.2021.14(Sat Nov 13 01:46:50 JST 2021)
(GPL source distribution)
Java Runtime: OpenJDK Runtime Environment
JVM: OpenJDK 64-Bit Server VM
Default Encoding: UTF-8
Language: en
Country: null
--></g></svg>